<?xml version="1.0" standalone="no"?>
<!DOCTYPE svg PUBLIC "-//W3C//DTD SVG 20010904//EN"
 "http://www.w3.org/TR/2001/REC-SVG-20010904/DTD/svg10.dtd">
<svg version="1.0" xmlns="http://www.w3.org/2000/svg"
 width="516.000000pt" height="484.000000pt" viewBox="0 0 516.000000 484.000000"
 preserveAspectRatio="xMidYMid meet">

<g transform="translate(0.000000,484.000000) scale(0.100000,-0.100000)"
fill="#000000" stroke="none">
<path d="M3770 3321 c0 -6 5 -11 10 -11 6 0 10 -5 10 -10 0 -6 -10 -8 -24 -4
-37 9 -41 -14 -6 -34 17 -9 39 -23 48 -30 15 -12 14 -13 -8 -7 -14 3 -42 9
-64 12 -73 11 -34 -17 102 -74 72 -31 132 -59 132 -62 0 -3 -46 -16 -103 -27
-56 -12 -111 -25 -122 -29 -18 -5 -25 4 -54 70 -31 69 -35 75 -50 61 -14 -15
-14 -20 3 -64 10 -26 24 -62 30 -79 6 -18 16 -35 23 -37 6 -3 48 4 92 14 44
11 126 26 183 35 143 22 139 20 92 63 -60 56 -183 154 -229 183 -64 40 -65 41
-65 30z"/>
<path d="M2890 3192 c0 -10 -3 -22 -7 -26 -4 -3 -8 -16 -10 -28 -2 -12 -10
-35 -18 -51 -8 -16 -17 -44 -21 -63 -3 -19 -10 -34 -15 -34 -21 0 -29 -96 -29
-385 0 -171 0 -332 0 -360 1 -27 -1 -112 -4 -187 -4 -120 -2 -140 13 -159 36
-45 89 4 118 112 16 58 18 116 16 603 -2 384 -5 548 -14 568 -13 32 -29 37
-29 10z"/>
<path d="M4116 2804 c-135 -33 -251 -127 -308 -252 -43 -92 -51 -228 -19 -324
67 -200 249 -321 461 -305 84 6 143 26 210 71 190 128 254 381 150 587 -51 99
-174 192 -296 223 -74 19 -119 19 -198 0z m94 -118 c47 -17 44 -35 -10 -63
l-45 -24 -37 42 c-21 23 -38 45 -38 50 0 13 90 9 130 -5z m231 -32 c18 -19 19
-26 9 -44 -12 -22 -13 -22 -57 23 -25 24 -43 49 -39 55 8 14 61 -7 87 -34z
m-341 -74 c0 -12 -60 -40 -85 -40 -18 0 -20 52 -3 100 l11 33 39 -41 c21 -23
38 -46 38 -52z m-144 34 c-3 -9 -6 -31 -6 -50 0 -29 -3 -34 -24 -34 -37 0 -40
15 -10 60 26 39 52 55 40 24z m408 -19 c20 -19 36 -41 36 -48 0 -23 -109 -117
-136 -117 -7 0 -26 25 -42 55 l-30 55 35 28 c19 15 45 35 56 44 31 24 41 22
81 -17z m179 -77 c25 -52 25 -54 8 -83 -9 -16 -21 -30 -25 -30 -4 0 -17 26
-28 59 -16 46 -18 63 -9 82 6 13 14 24 19 24 5 0 20 -24 35 -52z m-363 -49
c17 -28 29 -57 26 -64 -6 -16 -120 -55 -162 -55 -35 0 -44 16 -44 81 0 36 0
36 73 61 39 14 73 26 74 27 1 0 15 -22 33 -50z m-240 -6 c3 -2 10 -29 16 -60
13 -65 6 -71 -59 -57 -36 8 -42 13 -45 38 -2 16 -1 44 3 62 5 31 7 32 43 27
20 -3 39 -8 42 -10z m518 -25 c20 -64 22 -89 12 -108 -11 -21 -111 -100 -126
-100 -5 0 -19 30 -31 66 l-22 65 23 20 c29 25 118 87 128 88 3 1 11 -14 16
-31z m-192 -144 c8 -19 17 -48 21 -64 5 -27 2 -31 -38 -50 -25 -11 -66 -20
-96 -20 -48 0 -53 2 -72 33 -11 19 -22 44 -23 57 -3 20 4 25 42 36 25 6 63 19
85 27 58 22 64 21 81 -19z m314 26 c0 -20 -38 -119 -55 -142 -16 -22 -17 -21
-10 37 4 33 16 72 27 87 20 28 38 37 38 18z m-634 -50 c42 0 44 -1 69 -50 14
-27 25 -52 25 -56 0 -11 -106 3 -128 17 -24 15 -55 76 -46 90 3 6 13 8 21 5 8
-3 34 -6 59 -6z m514 -79 c0 -30 -64 -146 -80 -146 -11 0 -16 15 -18 60 l-3
60 43 22 c53 27 58 28 58 4z m-145 -91 c8 -45 -1 -80 -19 -80 -23 0 -82 28
-96 45 -16 19 -4 31 42 41 15 4 33 13 39 20 19 23 27 16 34 -26z m-168 -52
c18 -18 33 -35 33 -39 0 -13 -104 13 -141 37 -22 13 -39 26 -39 29 0 3 26 5
57 5 51 0 61 -4 90 -32z"/>
<path d="M2704 2702 c4 -7 3 -12 -2 -12 -6 0 -13 -15 -16 -32 -3 -18 -12 -45
-20 -60 -14 -26 -20 -70 -16 -113 1 -22 69 169 70 197 0 9 -5 20 -12 24 -7 4
-8 3 -4 -4z"/>
<path d="M3300 2701 c-110 -34 -200 -149 -230 -295 -22 -106 13 -217 80 -251
67 -35 138 -6 212 86 40 51 92 136 102 166 4 12 13 26 20 32 11 9 15 3 20 -31
18 -133 30 -313 30 -458 1 -153 -1 -168 -22 -213 -29 -58 -80 -102 -145 -123
-52 -17 -107 -16 -297 5 -78 9 -96 9 -108 -3 -32 -32 23 -88 114 -114 92 -27
268 -6 364 43 124 63 220 224 236 395 8 79 -12 499 -27 577 -12 64 -41 103
-76 103 -15 0 -41 14 -64 34 -54 50 -138 68 -209 47z m150 -89 l21 -17 -51
-104 c-53 -108 -115 -206 -145 -231 -15 -13 -20 -12 -37 10 -17 21 -20 35 -15
95 5 83 32 148 83 205 56 62 103 75 144 42z"/>
</g>
</svg>
